<?xml version="1.0" encoding="utf-8"?>
<!-- Generator: Adobe Illustrator 25.1.0, SVG Export Plug-In . SVG Version: 6.00 Build 0)  -->
<svg version="1.1" id="Layer_1" xmlns="http://www.w3.org/2000/svg" xmlns:xlink="http://www.w3.org/1999/xlink" x="0px" y="0px"
	 viewBox="0 0 841.89 595.28" style="enable-background:new 0 0 841.89 595.28;" xml:space="preserve">
<style type="text/css">
	.st0{fill:#F7941D;}
	.st1{fill:#001E50;}
</style>
<g>
	<g>
		<g>
			<path class="st0" d="M317.97,351.66c0,0-52.47,22.35-107.61-35.37c0,0-48.03-56.2-18.82-110.2c0,0-38.77,27.86-7.56,94.19
				l-39.68,7.29c0,0,16.43,49.23,55.91,68.56l15.52-36.12C215.75,340.01,261.59,384.93,317.97,351.66z"/>
		</g>
		<g>
			<path class="st0" d="M339.07,302.76c0.6,6.5,0.72,13.58-3.06,18.9c-4.11,5.79-11.84,7.87-18.94,7.77
				c-12.58-0.18-24.44-5.86-35.01-12.68c-30.79-19.89-54.26-50.85-65.09-85.87c-2.98-9.64-4.61-21.34,2.2-28.8
				c4.96-5.43,13.09-6.82,20.38-5.85c7.29,0.97,14.14,3.93,21.22,5.92c-10.4-5.01-20.32-11.55-31.65-13.77s-24.97,1.4-29.86,11.85
				c-1.93,4.13-2.28,8.83-2.24,13.39c0.24,25.81,12.92,46.85,27.93,66.87c14.44,19.27,31.63,36.82,52.18,49.57
				c3.48,2.16,7.05,4.18,10.7,6.04c8.6,4.38,17.87,7.93,27.52,8.26c6.46,0.22,13.26-1.18,18.13-5.43
				c4.83-4.21,7.15-10.73,7.59-17.12C341.52,315.43,340.29,309.05,339.07,302.76z"/>
		</g>
	</g>
	<g>
		<g>
			<circle class="st0" cx="525.85" cy="183.4" r="8.09"/>
		</g>
		<g>
			<circle class="st0" cx="554.61" cy="183.4" r="12.28"/>
		</g>
		<g>
			<circle class="st0" cx="586.51" cy="183.4" r="16.7"/>
		</g>
		<g>
			<circle class="st0" cx="627.25" cy="183.4" r="22.69"/>
		</g>
	</g>
	<g>
		<path class="st1" d="M271.61,232.49c3.6-6.04,8.45-10.82,14.56-14.35c6.28-3.67,13.06-5.51,20.34-5.51
			c11.23,0,20.81,3.99,28.76,11.97c7.98,7.94,11.97,17.53,11.97,28.76s-3.99,20.83-11.97,28.81c-7.94,7.94-17.53,11.92-28.76,11.92
			c-11.23,0-20.83-3.97-28.81-11.92c-7.94-7.98-11.92-17.58-11.92-28.81v-58.99h5.83V232.49z M271.61,253.35
			c0,9.64,3.41,17.87,10.22,24.68c6.81,6.81,15.04,10.22,24.68,10.22s17.86-3.41,24.68-10.22c6.81-6.81,10.22-15.04,10.22-24.68
			c0-9.64-3.41-17.86-10.22-24.68c-6.81-6.81-15.04-10.22-24.68-10.22s-17.86,3.41-24.68,10.22
			C275.02,235.49,271.61,243.71,271.61,253.35z"/>
		<path class="st1" d="M409.57,285.29v5.83h-49.14l35.9-39.93c1.41-1.55,2.52-3.02,3.34-4.4c0.85-1.48,1.54-3.3,2.07-5.45
			c0.78-3.21,0.62-6.48-0.48-9.8c-1.06-3.28-2.86-6.05-5.4-8.31c-4.1-3.64-8.88-5.22-14.35-4.77c-4.98,0.46-9.13,2.54-12.44,6.25
			c-3.46,3.85-5.07,8.39-4.82,13.61h-5.83c-0.21-6.74,1.89-12.57,6.3-17.48c4.34-4.87,9.76-7.59,16.26-8.16
			c7.17-0.64,13.42,1.45,18.75,6.25c1.24,1.06,2.31,2.19,3.23,3.39c3.64,4.73,5.31,10.2,5.03,16.42c-0.07,1.48-0.28,2.95-0.64,4.4
			c-1.06,4.17-3.42,8.3-7.1,12.39l-26.8,29.76H409.57z"/>
		<path class="st1" d="M461.14,212.63c10.56,0,19.72,3.58,27.49,10.75c7.73,7.1,12.07,15.83,13.03,26.21
			c0.14,1.45,0.21,2.7,0.21,3.76l-0.05,1.06l-0.05,1.01h-75.41c0.53,9.18,4.13,16.95,10.8,23.3c6.74,6.35,14.74,9.53,23.99,9.53
			c7.03,0,13.47-1.96,19.33-5.88c5.68-3.81,9.89-8.84,12.6-15.09h6.19c-2.89,7.91-7.77,14.32-14.61,19.22
			c-7.03,5.05-14.87,7.57-23.52,7.57c-11.23,0-20.83-3.99-28.81-11.97c-7.94-7.94-11.91-17.53-11.91-28.76s3.97-20.81,11.91-28.76
			C440.32,216.62,449.92,212.63,461.14,212.63z M495.83,249.59c-0.95-8.79-4.71-16.17-11.28-22.14c-6.67-6-14.47-9-23.41-9
			c-8.97,0-16.77,3-23.41,9c-6.6,5.97-10.36,13.35-11.28,22.14H495.83z"/>
		<path class="st1" d="M547.57,212.58c3.04,0,6.02,0.39,8.95,1.16v6.04c-2.93-0.95-5.91-1.43-8.95-1.43
			c-8.01,0-14.85,2.84-20.49,8.53c-5.68,5.68-8.53,12.53-8.53,20.55v43.69h-5.82v-43.69c0-9.6,3.41-17.81,10.22-24.62
			C529.76,215.98,537.97,212.58,547.57,212.58z"/>
		<path class="st1" d="M607.84,294.08c-7.31,0-14.09-1.84-20.34-5.51c-6.11-3.53-10.96-8.33-14.56-14.4v45.07h-5.82v-65.88
			c0-11.23,3.97-20.83,11.92-28.81c7.98-7.94,17.58-11.92,28.81-11.92c11.23,0,20.81,3.97,28.76,11.92
			c7.98,7.98,11.97,17.58,11.97,28.81s-3.99,20.81-11.97,28.76C628.65,290.09,619.07,294.08,607.84,294.08z M607.84,218.4
			c-9.64,0-17.86,3.42-24.68,10.27c-6.81,6.81-10.22,15.04-10.22,24.68c0,9.6,3.41,17.83,10.22,24.68
			c6.81,6.81,15.04,10.22,24.68,10.22c9.64,0,17.86-3.41,24.68-10.22c6.81-6.85,10.22-15.07,10.22-24.68
			c0-9.64-3.41-17.86-10.22-24.68C625.7,221.83,617.48,218.4,607.84,218.4z"/>
	</g>
</g>
</svg>
