<?xml version="1.0" encoding="utf-8"?>
<!-- Generator: Adobe Illustrator 22.0.0, SVG Export Plug-In . SVG Version: 6.00 Build 0)  -->
<svg version="1.1" id="Layer_1" xmlns="http://www.w3.org/2000/svg" xmlns:xlink="http://www.w3.org/1999/xlink" x="0px" y="0px"
	 viewBox="0 0 595.3 841.9" style="enable-background:new 0 0 595.3 841.9;" xml:space="preserve">
<g>
	<g>
		<path d="M205.2,705.7c8.4,0,17.1-2.6,25.5-9c1.3-1.1,1.6-0.4,0.8,0.3c-10.4,9.6-21.5,13.4-32.1,13.4c-27.4,0-53.2-25-64.8-42.3
			c-0.8-1.1-1.8-2.6-2.9-4.3c-12.2,16.2-23,31.9-23,35c0,0.8,0.1,1.3,1.3,1.3c3.7,0,6.5-0.7,10.1-2.8c-3,3-8.3,6.8-12.9,6.8
			c-4,0-4.5-3.3-4.5-5.5c0-9.1,12.9-30.4,23.6-45.7l-0.5-1.4c-1.1-3-1.7-5.3-1.4-6.6c1.7-8.6,11.7-12.4,9.6-9.9
			c-0.8,1.1-1.2,2.9-0.8,5c0.1,0.8,0.4,1.7,0.8,2.6c15.3-20.3,41-50.8,52.8-50.8c4.7,0,9,2.1,11.3,4.7c-8.2-3.8-43.7,38.5-57.8,56.2
			c30-1.4,87.2-28.7,85.9-52.4c-0.9-14.7-20.9-21.6-36.1-21.6c-49.5,0-99.7,40.2-99.7,55.6c0,5.3,4.2,8.8,7.4,9.1
			c0,0-0.4,0.7-3.4,0.7c-9,0-13.3-5.7-13.3-12.6c0-23.7,53.3-56.5,103.8-56.5c17.8,0,47.8,6.5,49.2,30.4
			c1.4,24.8-47.5,53.3-85.9,53.3c-2.8,0-5.4-0.1-8-0.4c1.1,2.2,2.5,4.5,3.8,6.5C154.8,680.7,179,705.7,205.2,705.7z"/>
		<path d="M209.9,685.8c-2.1-0.7-5.4-4-5.4-6.3c0-7.6,19.1-36.3,27.5-43.1c0.7-0.7,1.4-0.8,2-0.8c3,0,8.3,5.3,8.3,8.6
			c0,0.5-0.7-0.1-1.7-0.3c-5.4-0.5-23.4,29.5-25,34.9c8-2.1,27.3-20.4,35.3-28.2c0.9-0.7,1.6,0.4,1.2,0.8
			c-11.5,12.4-32.4,33.8-40.6,34.5C211,685.9,210.6,685.9,209.9,685.8z M253.9,619.7c1.2,1.3,2,3.3,1.4,3.3c-0.3,0-1.3-0.5-2.8,0.1
			c-2.2,0.9-8.3,6.3-9.9,8.6c-1.8,2.4-4.6-0.4-4.7-2.8c-0.1-3.8,4.9-12.4,8.3-13.4C249.3,615.1,252.2,617.7,253.9,619.7z"/>
		<path d="M250.8,680.3c12.1-1.3,34.2-19.1,47-29.5c0.4-0.3,1.3,0.3,0.9,0.7c-11.3,10.7-36.7,34.5-53.1,34.5c-4.2,0-9-4-9.6-8.2
			c-0.1-1.1-0.1-2.4,0.3-4c1.1-5.5,5.8-14.7,14.6-23.3c10.8-10.7,24.1-17.5,33.4-17.5c3,0,7.5,4.5,7.5,6.5c0,5-6.5,9.9-10.8,13.2
			c-0.3,0.3-0.9,0-0.7-0.4c2.1-2.1,7.5-12.5,6.5-13.4c-14.1,0.3-39.9,30-39.9,39.2C246.9,680.1,249.6,680.4,250.8,680.3z"/>
		<path d="M295.4,649.6c9.1-15.3,18.4-28.7,26.9-39.9c6.7-9,12.4-15.4,16.6-18.8c2.2-1.7,4-2.4,5-2.4c7.6,0,12.6,7.8,10.3,6.3
			c-3.6-1.7-8.6,3.3-16.3,12.2c-1.4,1.7-7.9,10-7.9,10c-7.9,10-17.8,25-24.8,36.2c10.4-11.1,26.2-23.3,32.7-23.3
			c2.9,0,6.3,5.5,6.3,8.3c0,9.7-26.9,26.7-41.5,25.4c5.7,14.6,23,34.8,40.3,34.8c4.6,0,9.2-1.4,13.6-4.7c0.4-0.4,1.4-0.3,0.8,0.4
			c-5.5,5.3-11.7,7.5-18,7.5c-17,0-34.8-16.3-43.7-31.7c-3.2,5.9-10.4,16.1-4.5,16.7c-1.6,0.7-3,0.1-4.3-0.7
			c-0.9-0.4-3.6-3.2-4.6-5.3c-0.3-1.1-0.3-5.4,4-14c1.2-2.6,2.6-5.3,4-7.9c-0.5-2.1-0.9-4.1-0.4-5.5
			C290.4,651.2,292.9,650.1,295.4,649.6z M301.4,659.5c0.3,1.3,0.5,2.2,0.8,2.6c11.6-1.6,26.7-18.6,30.7-26.5
			C323.8,637.9,302.8,657.6,301.4,659.5z"/>
		<path d="M380.2,664.3c-10.3,12.8-31.2,50.3-39,64.9c10.4-14.4,29.5-31.9,33.3-33.1c0.7,0,0.7,0.8,0.7,0.8
			c-18.8,15-36.2,42.7-37.7,49c-0.3,0.3-0.8,0.4-1.4,0.4c-5.3,0.5-7.2-6.7-6.8-9.1c0.4-4,3.2-9.7,5.5-15.3
			c6.8-15,24.8-49.9,43.3-71.2c-13.3,13.6-31.9,33.3-39.8,34.9c-0.4,0-0.8,0-1.1,0c-2.1,0-6.2-3.6-6.2-6.7c0-5.7,7.2-19,14.7-29.4
			c4.5-6.5,9.9-12.4,13.2-15c0.7-0.7,1.4-0.8,1.8-0.8c3.2,0,8.2,5.1,8.2,8.6c0,0.5-0.4-0.1-1.4-0.3c-2.1-0.3-7.5,6.1-12,12
			c-6.7,8.7-13.2,20.3-13.2,24.1c6.3-2.6,19.8-14.5,25.9-20.5c7-6.7,17.3-18,24.5-23.8c0.8-0.7,1.3-0.8,2-0.8c3,0,8.2,5.3,8.2,8.6
			c0,0.5-0.5-0.1-1.4-0.3c-1.1-0.1-2.8,1.1-4.6,3C391.4,650.1,386,657.2,380.2,664.3z"/>
		<path d="M353.3,754.5c-0.4,1.8,2.1,3.4,3.1,4.4c16.6-9.3,29.9-11.6,31.2-11.6c0.2,0,0.6,0.2,0.6,0.5c0.9,0.3-19.6,5.7-30.9,12.4
			c1.3,1,3.9,4,3.6,6.2c-1.5,6.7-15.1,12.2-21.9,12.2c-2.3,0-3.4-1.9-3.9-4.2c0.3-4.5,15.6-13.2,19.2-14.6c-1.1-1.5-7.3-5.2-6.3-9.8
			c1.7-7.9,16.6-15.7,25.7-15.7c2.9,0,4.3,4.8,3.9,7.8c-0.1,1.5-6.6,7.7-9.4,7.7c-0.1,0-0.3-0.4-0.2-0.4c0.3,0,7.3-7.3,7.5-9.3
			C370.7,739.8,354.6,749.6,353.3,754.5z M337.8,773.4c4-1.1,16.9-7.8,16.9-11.7C348.5,765.2,340.8,770.4,337.8,773.4z"/>
		<path d="M412.6,702.9c1.6-1.2,2.9-2.1,3.8-2.1c5.8-0.3,10,5.7,8,4.6c-3.3-1.6-9.4,6.7-14,12.7c16.7-0.8,38.6,0,53.4,3.1
			c0.8,0.2,1.2,0.4,0,0.3c-20.5-1.8-39.5-1.7-56.9,0.9c-3.8,4.8-7.3,10-11.4,16.1c-9,13.7-16.8,26.9-19.3,33.5
			c4.5,0.5,21.7-16.4,27.8-22c0.6-0.5,1,0.3,0.7,0.6c-5.1,5.8-23.1,24.7-29.4,27c-1.3,0.5-2.4,0.1-3.3-0.4c-0.8-0.4-3.1-2.6-3.7-4.2
			c-0.1-0.2-0.3-0.4-0.3-1.6c0-3.1,4.7-13.3,17.4-33c2.8-4.3,5.8-8.8,9.6-13.9c-9.9,2-16,7-13.3,8.5c-1.7,0-5.2-2-5.5-5.3
			c-0.4-4.7,11-7.6,22.6-8.9C407.1,708.2,410,704.9,412.6,702.9z"/>
		<path d="M430.4,760.7c-8.1,10.1-24.6,39.6-30.7,51.1c8.2-11.3,23.2-25.1,26.2-26c0.5,0,0.5,0.6,0.5,0.6
			c-14.8,11.8-28.5,33.6-29.7,38.6c-0.2,0.2-0.6,0.3-1.1,0.3c-4.1,0.4-5.7-5.3-5.4-7.2c0.3-3.1,2.5-7.7,4.4-12
			c5.4-11.8,19.5-39.3,34.1-56.1c-10.5,10.7-25.1,26.2-31.3,27.5c-0.3,0-0.6,0-0.8,0c-1.7,0-4.9-2.8-4.9-5.3
			c0-4.5,5.7-14.9,11.6-23.1c3.5-5.1,7.8-9.8,10.4-11.8c0.5-0.5,1.1-0.6,1.5-0.6c2.5,0,6.4,4,6.4,6.7c0,0.4-0.3-0.1-1.1-0.2
			c-1.7-0.2-5.9,4.8-9.4,9.4c-5.3,6.8-10.4,16-10.4,19c5-2.1,15.6-11.4,20.4-16.2c5.5-5.3,13.6-14.2,19.3-18.8
			c0.6-0.5,1-0.6,1.6-0.6c2.4,0,6.4,4.1,6.4,6.7c0,0.4-0.4-0.1-1.1-0.2c-0.8-0.1-2.2,0.8-3.6,2.4C439.3,749.5,435,755.1,430.4,760.7
			z"/>
		<path d="M471.2,712.3c3.1-4,6-7.4,8.6-9.4c1.6-1.2,2.9-2.1,3.8-2.1c5.8-0.3,10,5.7,8,4.6c-3.6-1.7-10.4,8.1-14.9,13.7
			c-4.5,5.7-8.7,11.8-13.9,19.4c-9,13.7-16.8,26.9-19.3,33.5c4.5,0.5,21.7-16.4,27.8-22c0.6-0.5,1,0.3,0.7,0.6
			c-5.1,5.8-23.1,24.7-29.4,27c-1.3,0.5-2.4,0.1-3.3-0.4c-0.8-0.4-3.1-2.6-3.7-4.2c-0.1-0.2-0.3-0.4-0.3-1.6c0-3.1,4.8-13.2,17.4-33
			C459.2,728.4,465.8,719.3,471.2,712.3z"/>
		<path d="M493.1,742.1c6.2-0.4,12.7-4.1,13.5-5.5c0.8-1.2,6.3,6,5.1,8.1c-7.9,1-36.8,18.1-43.3,25.1c2.3-1.2,6.5-2.1,11.1-2.1
			c7.9,0,17,2.4,20.4,9.2c0.3,0.7,0,1.1-0.4,0.6c-2.5-4.4-7.6-6.6-17.6-6.6c-10.6,0-17.8,7.2-19.5,7.2c-1.6,0-6.3-5.4-5.4-7
			c4.5-8.3,30.4-25,40.4-27.9c-3,0.9-7.1,1.5-10.7,1.5c-4.1,0-8-0.6-9.3-1.7c-2.4-2.1,0.7-6.2,4.1-7.1
			C480,739.4,486.7,742.5,493.1,742.1z"/>
	</g>
	<g>
		<path d="M346.8,127.1c0,0-33.5-29.7-81-11.4V94.2C265.8,94.2,344.9,97.3,346.8,127.1z"/>
		<path d="M180.5,276.8c-2.7-7.5-2.7-15.9-2.6-23.9c0.5-52.3,1-104.7,1.5-157c0.1-13.2,0.2-26.8-5.2-38.8
			c-5.3-12-17.6-22.1-30.7-20.4c0.4-0.1-0.1-10.9,0.1-11.9c2.2-8.7-1.5-5.7,6-7.9c6.9-2,24.1,4.9,31.6,6c22.2,3.3,44.6,5.1,66.9,6.8
			c43.6,3.3,87.6,6,129.7,18.7c24.2,7.2,47.8,18,66,35.5c18.2,17.4,30,40.7,36.5,65c9,33.7,8.1,70-2.6,103.3
			c-17.9,55.5-61.3,99.5-109.9,131.7c28.1,28.6,58,55.7,82.5,87.5c24.5,31.8,43.5,69.3,45.9,109.3c2.6,45-16.5,89.7-46.9,123
			c29-55.8,13.1-126.2-22-178.4c-35.1-52.2-86.7-90.6-135.5-130.3c-7.2-5.8-14.5-11.9-18.7-20.1c30-14.6,59-32,82.9-55.1
			c24-23.1,42.8-52.5,49.5-85.2c8.6-42-4.6-87.8-34.1-118.9c-29.5-31.1-74.6-46.5-117-40.2c0,98.2,0,196.3,0,294.5
			c-21.2-25.7-42.4-51.5-63.6-77.2c-3.6-4.3-7.2-8.7-9.4-13.8C181,278.3,180.8,277.6,180.5,276.8z"/>
		<path d="M238.8,364.5c-0.1,0-0.1-0.1-0.2-0.1c-0.9-0.9-1.8-1.8-2.7-2.6C236.9,362.7,237.8,363.6,238.8,364.5z"/>
		<path d="M238.8,364.5c-0.1,0-0.1-0.1-0.2-0.1c-0.9-0.9-1.8-1.8-2.7-2.6C236.9,362.7,237.8,363.6,238.8,364.5z"/>
		<path d="M431.8,709.5c-10.8-79.7-51.2-154.9-111.1-208.4c-11.2-9.9-23-19.2-35.1-28.1c-34.5-25.3-71.5-47.8-103.1-75.5
			c0,0,0,0-0.1,0c-1.6-1.2-3.1-2.3-4.5-3.4c-12.7-9.9-21.3-18.2-27.2-25c-15.5-14.3-28.3-31.6-37.5-50.8
			c-10.7-22.2-16.7-47.1-16.7-73.5c0-24.7,5.3-48.2,14.8-69.4c0.1-0.1,0.1-0.3,0.2-0.4c7.3-17.4,17.1-31.7,26.8-42.9
			c17-19.7,33.3-29.6,33.3-29.6l3-2.1l-0.1,1.7l-1.1,24.5v0.1l0,1.2v5.3c0,0-0.7,0.6-1.8,1.8c0,0,0,0,0,0.1
			c-0.6,0.9-6.5,10.4-11.2,26.6c-8.2,28.4-12.4,77.6,23.4,137.3c0.8,1.3,1.5,2.6,2.4,3.9c0.8,1.3,1.6,2.6,2.5,3.9
			c0.4,0.7,0.9,1.4,1.4,2.1c13,19.4,29,36.9,46.2,53.3c0.9,0.9,1.8,1.7,2.7,2.6c0.1,0,0.1,0.1,0.2,0.1
			c11.2,10.5,22.9,20.5,34.6,30.2c6.8,5.7,13.7,11.4,20.5,17.1c13.4,11.1,26.8,22.3,39.8,33.8c20.9,15.6,39.3,34.3,54.6,55.5
			c7.2,8.7,14,17.8,20.3,27.3C443.8,581.8,459.8,652.4,431.8,709.5z"/>
	</g>
</g>
</svg>
